<svg xmlns="http://www.w3.org/2000/svg" width="100" height="100" viewBox="0 0 100 100" version="1.1"><path d="" stroke="none" fill="#080404" fill-rule="evenodd"/><path d="M 20.712 0.622 C 20.320 1.013, 20 2.814, 20 4.625 L 20 7.916 12.250 8.208 L 4.500 8.500 4.500 52 L 4.500 95.500 36.500 96 C 65.206 96.449, 68.851 96.691, 71.906 98.357 C 74.483 99.761, 76.807 100.118, 81.449 99.822 C 88.318 99.385, 92.209 97.215, 96.713 91.310 C 100.326 86.573, 101.137 77.007, 98.357 71.906 C 96.701 68.869, 96.446 65.253, 96 38.500 L 95.500 8.500 87.808 8.209 L 80.116 7.918 79.808 4.209 L 79.500 0.500 74 0.500 L 68.500 0.500 68.190 4.250 L 67.879 8 50 8 L 32.121 8 31.810 4.250 L 31.500 0.500 26.462 0.205 C 23.690 0.043, 21.103 0.230, 20.712 0.622 M 24 10 C 24 15.333, 24.222 16, 26 16 C 27.778 16, 28 15.333, 28 10 C 28 4.667, 27.778 4, 26 4 C 24.222 4, 24 4.667, 24 10 M 72 10 C 72 15.333, 72.222 16, 74 16 C 75.778 16, 76 15.333, 76 10 C 76 4.667, 75.778 4, 74 4 C 72.222 4, 72 4.667, 72 10 M 8 19 L 8 26 50 26 L 92 26 92 19 L 92 12 86.060 12 L 80.121 12 79.810 15.750 L 79.500 19.500 74 19.500 L 68.500 19.500 68.190 15.750 L 67.879 12 50 12 L 32.121 12 31.810 15.750 L 31.500 19.500 26 19.500 L 20.500 19.500 20.190 15.750 L 19.879 12 13.940 12 L 8 12 8 19 M 8 61 L 8 92 35.500 92 C 50.625 92, 62.984 91.662, 62.965 91.250 C 62.945 90.838, 62.286 89.375, 61.500 88 C 60.714 86.625, 60.055 83.651, 60.035 81.392 C 60.002 77.533, 59.665 77.061, 54.480 73.618 L 48.960 69.953 42.903 74.066 C 39.571 76.328, 36.630 77.964, 36.367 77.700 C 36.103 77.437, 36.588 74.519, 37.444 71.216 C 38.300 67.914, 38.979 64.601, 38.953 63.856 C 38.927 63.110, 36.371 60.475, 33.272 58 L 27.639 53.500 35.548 52.500 L 43.457 51.500 45.949 44.750 C 47.320 41.038, 48.693 38, 49 38 C 49.307 38, 50.680 41.038, 52.051 44.750 L 54.543 51.500 62.452 52.500 L 70.361 53.500 64.666 58 C 59.117 62.385, 58.986 62.602, 59.537 66.500 C 60.058 70.188, 62 73.954, 62 71.277 C 62 69.257, 67.168 63.955, 71.086 61.956 C 75.645 59.631, 84.320 59.397, 88 61.500 C 89.375 62.286, 90.838 62.945, 91.250 62.965 C 91.662 62.984, 92 55.575, 92 46.500 L 92 30 50 30 L 8 30 8 61 M 47.894 53.750 C 46.746 56.550, 46.072 57.001, 43.031 57.005 L 39.500 57.010 42.268 59.255 C 44.749 61.268, 44.937 61.838, 44.082 64.768 L 43.129 68.037 46.065 66.303 C 48.850 64.657, 49.150 64.657, 51.935 66.303 L 54.871 68.037 53.918 64.768 C 53.063 61.838, 53.251 61.268, 55.732 59.255 L 58.500 57.010 54.895 57.005 C 51.707 57.001, 51.170 56.623, 50.257 53.750 L 49.226 50.500 47.894 53.750 M 75.594 65.041 C 71.396 66.297, 66.123 71.828, 64.942 76.215 C 62.150 86.584, 72.251 97.357, 82.894 95.360 C 87.617 94.474, 93.737 88.690, 95.029 83.892 C 97.105 76.182, 91.872 67.258, 83.942 64.983 C 80.012 63.856, 79.545 63.859, 75.594 65.041 M 82.633 77.014 L 77.766 82.923 74.564 80.481 C 72.102 78.603, 71.089 78.311, 70.181 79.219 C 68.239 81.161, 68.850 82.332, 73.643 85.860 C 77.464 88.672, 78.419 88.999, 79.501 87.860 C 87.382 79.568, 91.816 73.483, 90.837 72.304 C 89.018 70.111, 87.691 70.873, 82.633 77.014" stroke="none" fill="#040404" fill-rule="evenodd"/></svg>